<?xml version="1.0" encoding="utf-8"?>
<!-- Generator: Adobe Illustrator 19.0.0, SVG Export Plug-In . SVG Version: 6.00 Build 0)  -->
<svg version="1.1" id="Layer_1" xmlns="http://www.w3.org/2000/svg" xmlns:xlink="http://www.w3.org/1999/xlink" x="0px" y="0px"
	 viewBox="0 0 285.7 140.7" style="enable-background:new 0 0 285.7 140.7;" xml:space="preserve">
<g>
	<g id="XMLID_128_">
		<path id="XMLID_129_" d="M87.7,129.5c-1.7-0.4-2.9-0.8-3.3-1.1c-0.5-0.3-0.7-0.7-0.7-1.3c0-0.5,0.2-1,0.6-1.3
			c0.4-0.3,0.9-0.5,1.6-0.5c1.7,0,3.4,0.6,5,1.8l2.1-3c-0.9-0.8-2-1.4-3.2-1.8c-1.2-0.4-2.5-0.6-3.7-0.6c-1.9,0-3.4,0.5-4.7,1.4
			c-1.3,0.9-1.9,2.3-1.9,4c0,1.7,0.5,3,1.5,3.8c1,0.8,2.6,1.5,4.7,2c1.4,0.3,2.3,0.7,2.7,1c0.5,0.3,0.7,0.8,0.7,1.3
			c0,0.6-0.2,1-0.6,1.3c-0.4,0.3-1,0.5-1.8,0.5c-1.7,0-3.5-0.9-5.5-2.6l-2.4,3c2.3,2.2,5,3.2,7.9,3.2c2,0,3.6-0.5,4.9-1.5
			c1.2-1,1.9-2.4,1.9-4c0-1.7-0.5-2.9-1.4-3.8C90.9,130.5,89.5,129.9,87.7,129.5z M100.3,125.7h5.2v14.9h4.1v-14.9h5.2v-3.6h-14.5
			V125.7z M134.6,132.3c0,1.5-0.3,2.6-1,3.5c-0.7,0.9-1.6,1.3-2.8,1.3c-1.2,0-2.1-0.4-2.8-1.3c-0.7-0.9-1-2-1-3.5v-10.2h-4.1v10.3
			c0,2.7,0.7,4.7,2.2,6.1c1.5,1.4,3.4,2.2,5.7,2.2c2.3,0,4.2-0.7,5.7-2.1c1.5-1.4,2.2-3.5,2.2-6.1v-10.3h-4.1V132.3z M154.7,122.1
			h-6.5v18.4h6.3c3.5,0,6.1-0.8,7.8-2.5c1.7-1.7,2.6-3.9,2.6-6.8c0-2.9-0.9-5.1-2.6-6.7C160.5,122.9,158,122.1,154.7,122.1z
			 M159.2,135.5c-1,0.9-2.5,1.4-4.3,1.4h-2.6v-11.2h2.3c2.1,0,3.6,0.5,4.6,1.5c1,1,1.5,2.4,1.5,4.2
			C160.8,133.1,160.3,134.5,159.2,135.5z M173.7,140.5h4.1v-18.4h-4.1V140.5z M196.2,121.7c-2.7,0-5,0.9-6.9,2.7
			c-1.9,1.8-2.8,4.1-2.8,6.8c0,2.7,0.9,5,2.8,6.8c1.9,1.8,4.2,2.7,6.9,2.7c2.7,0,5-0.9,6.9-2.7c1.9-1.8,2.8-4.1,2.8-6.8
			c0-2.7-0.9-5-2.8-6.8C201.2,122.6,199,121.7,196.2,121.7z M200.1,135.4c-1.1,1.2-2.3,1.7-3.9,1.7c-1.5,0-2.8-0.6-3.9-1.7
			c-1.1-1.1-1.6-2.5-1.6-4.2c0-1.6,0.5-3,1.6-4.2c1.1-1.2,2.3-1.7,3.9-1.7c1.5,0,2.8,0.6,3.9,1.7c1.1,1.2,1.6,2.6,1.6,4.2
			C201.7,132.8,201.2,134.2,200.1,135.4z M51.4,83.5c-2.2,1.8-4.1,2.6-5.6,2.6c-1.4,0-2.1-0.9-2.1-2.6c0-0.3,0.1-0.7,0.2-1.1
			c0.1-0.5,0.4-1.3,0.7-2.5c0.4-1.2,1-3,1.8-5.3c0.8-2.3,2-5.5,3.5-9.6c1.6-4.3,2.7-8.1,3.5-11.4c0.7-3.3,1.1-6.2,1.1-8.7
			c0-4-0.9-7-2.8-9.1c-1.9-2.1-4.6-3.2-8.2-3.2c-3.5,0-6.8,1-9.9,2.9c-3.2,1.9-5.9,4.6-8.3,8.2l-0.3-0.2L37.7,0h-23L14,4.5
			c3.8,0.2,6.5,0.5,7.9,1.1C23.3,6.2,24,7.3,24,8.8c0,0.8-0.2,2-0.5,3.4c-0.3,1.4-0.7,3.1-1.2,5L0,93.4h9.5l2.6-7.8
			c2.8-8.3,5.4-15.3,7.9-21.3c2.5-5.9,4.9-10.8,7.1-14.6c2.3-3.8,4.6-6.6,6.8-8.4c2.3-1.8,4.5-2.7,6.9-2.7c1.4,0,2.3,0.4,2.9,1.1
			c0.6,0.7,0.8,1.9,0.8,3.7c0,1.7-0.3,3.7-0.8,6c-0.6,2.3-1.5,5.3-2.8,9.1c-1.7,4.7-3,8.6-4,11.8c-1,3.1-1.8,5.7-2.4,7.9
			c-0.6,2.1-1,3.9-1.2,5.3c-0.2,1.4-0.3,2.8-0.3,4.1c0,2.5,0.5,4.3,1.4,5.4c0.9,1.1,2.4,1.7,4.4,1.7c1.9,0,3.9-0.4,6-1.3
			c2.1-0.9,4.2-2,6.3-3.5c2.1-1.5,4-3.2,5.7-5.1c1.8-2,3.2-4,4.4-6.2l-3.2-2.4C55.8,79.2,53.6,81.7,51.4,83.5z M89.7,69.9
			c5-1.1,9.8-2.7,14.2-4.7c4.5-2,8.4-4.3,11.7-6.8c3.3-2.5,6-5.1,7.9-7.9c2-2.8,2.9-5.5,2.9-8.1c0-2.9-1.1-5.2-3.4-7
			c-2.3-1.8-5.2-2.8-8.8-2.8c-4.3,0-8.6,1.3-12.8,3.9c-4.3,2.6-8.1,6-11.6,10.1c-3.5,4.2-6.2,8.8-8.4,14c-2.1,5.2-3.2,10.4-3.2,15.5
			c0,5.9,1.4,10.4,4.2,13.6c2.8,3.2,6.8,4.8,11.9,4.8c9.5,0,17.6-5.4,24.1-16.1l-3.6-2.4c-2.6,3.8-5.3,6.8-8.3,9
			c-3,2.2-5.8,3.3-8.6,3.3c-5.8,0-8.7-4.1-8.7-12.3c0-1,0-2.1,0.1-3.1C89.4,72,89.5,70.9,89.7,69.9z M94.6,54.8
			c1.6-3.2,3.3-6.1,5.2-8.6c1.9-2.5,3.9-4.5,6-6c2.1-1.5,4.1-2.3,6.1-2.3c2.6,0,3.9,1.6,3.9,4.7c0,2.3-0.6,4.5-1.9,6.7
			c-1.3,2.2-3,4.3-5.2,6.3c-2.2,2-4.9,3.8-7.9,5.3c-3.1,1.6-6.4,2.9-10,3.8C91.8,61.4,93.1,58,94.6,54.8z M165.9,76.5
			c-1,1.5-2.1,2.9-3.3,4.3c-1.2,1.4-2.5,2.6-3.9,3.6c-1.4,1-2.6,1.5-3.8,1.5c-0.8,0-1.4-0.3-1.8-0.8c-0.4-0.5-0.6-1.1-0.6-1.8
			c0-1,0.1-2.3,0.5-3.9c0.3-1.5,0.7-3.3,1.4-5.3l20.1-73.9l-20.6,1l-0.9,3.4c5.7,0,8.6,1.3,8.6,3.9c0,0.7-0.2,1.7-0.6,3.1
			c-0.4,1.4-0.8,2.8-1.1,4.1l-15,55c-1.1,4.4-1.9,7.9-2.4,10.5c-0.5,2.6-0.7,4.6-0.7,6.1c0,2.6,0.6,4.5,1.9,5.6
			c1.2,1.1,3.2,1.7,5.8,1.7c1.7,0,3.6-0.5,5.7-1.6c2.1-1.1,4.1-2.5,6.1-4.3c2-1.8,3.9-3.9,5.7-6.2c1.8-2.4,3.3-4.8,4.4-7.4L168,73
			C167.6,73.9,166.9,75,165.9,76.5z M200.8,74.1l20.1-73.9l-20.6,1l-0.9,3.4c5.7,0,8.6,1.3,8.6,3.9c0,0.7-0.2,1.7-0.6,3.1
			c-0.4,1.4-0.8,2.8-1.1,4.1l-15,55c-1.1,4.4-1.9,7.9-2.4,10.5c-0.5,2.6-0.7,4.6-0.7,6.1c0,2.6,0.6,4.5,1.9,5.6
			c1.2,1.1,3.2,1.7,5.8,1.7c1.7,0,3.6-0.5,5.7-1.6c2.1-1.1,4.1-2.5,6.1-4.3c2-1.8,3.9-3.9,5.7-6.2c1.8-2.4,3.3-4.8,4.4-7.4l-3.4-1.9
			c-0.5,0.8-1.2,2-2.1,3.4c-1,1.5-2.1,2.9-3.3,4.3c-1.2,1.4-2.5,2.6-3.9,3.6c-1.4,1-2.6,1.5-3.8,1.5c-0.8,0-1.4-0.3-1.8-0.8
			c-0.4-0.5-0.6-1.1-0.6-1.8c0-1,0.1-2.3,0.5-3.9C199.7,77.9,200.2,76.1,200.8,74.1z M284.3,45.4c-0.9-2.7-2.2-5-3.8-6.9
			c-1.6-1.9-3.6-3.4-5.9-4.4c-2.3-1-4.8-1.5-7.5-1.5c-4.1,0-8.1,1.1-12,3.4c-3.9,2.3-7.3,5.2-10.3,8.9c-3,3.7-5.4,7.9-7.3,12.6
			c-1.8,4.7-2.8,9.5-2.8,14.4c0,3.5,0.5,6.7,1.5,9.5c1,2.8,2.3,5.2,3.9,7.1c1.6,2,3.6,3.4,5.8,4.4c2.2,1,4.6,1.5,7.1,1.5
			c4.1,0,8-1.2,11.9-3.7c3.9-2.4,7.4-5.6,10.4-9.4c3-3.8,5.5-8.1,7.4-12.9c1.9-4.8,2.8-9.6,2.8-14.3C285.7,51,285.3,48.1,284.3,45.4
			z M273.1,61.9c-1.2,4.7-2.9,9.1-4.8,13.1c-2,4-4.2,7.3-6.8,10c-2.5,2.6-5,3.9-7.6,3.9c-2.1,0-3.8-0.9-5.2-2.6
			c-1.4-1.7-2-4.7-2-8.9c0-2.8,0.3-5.7,0.8-8.7c0.5-3,1.3-6,2.3-8.9c1-2.9,2.1-5.7,3.4-8.3c1.3-2.6,2.7-5,4.2-7
			c1.5-2,3.1-3.6,4.8-4.8c1.7-1.2,3.4-1.7,5-1.7c2.4,0,4.3,0.8,5.7,2.3c1.4,1.5,2.1,4.2,2.1,8.2C274.9,52.7,274.3,57.2,273.1,61.9z"
			/>
	</g>
</g>
</svg>
